<?xml version="1.0" encoding="utf-8"?>
<!-- Generator: Adobe Illustrator 26.5.0, SVG Export Plug-In . SVG Version: 6.00 Build 0)  -->
<svg version="1.1" xmlns="http://www.w3.org/2000/svg" xmlns:xlink="http://www.w3.org/1999/xlink" x="0px" y="0px"
	 viewBox="0 0 431.84 431.66" style="enable-background:new 0 0 431.84 431.66;" xml:space="preserve">
<style type="text/css">
	.st0{fill:#262620;}
</style>
<g id="Layer_1">
	<g>
		<path class="st0" d="M119.9,31.09v29.9v2.16v185.9c0,36.76,49.78,32.06,49.78,32.06v-32.06V60.99h-0.09
			C167.66,26.61,119.9,31.09,119.9,31.09z"/>
		<path class="st0" d="M251.18,172.82h-0.05v188.06v32.06c0,0,49.78,4.7,49.78-32.06V173.9v-1.08v-30.98
			C300.92,141.84,252.17,137.26,251.18,172.82z"/>
		<path class="st0" d="M185.52,141.84v32.06v75.15c0,36.76,49.78,32.06,49.78,32.06v-32.06V173.9
			C235.3,137.14,185.52,141.84,185.52,141.84z"/>
	</g>
</g>
<g id="Layer_2">
	<path class="st0" d="M253.9,114.08c0,24.52,10.95-6.27,23.05-6.27c12.09,0,23.05,30.79,23.05,6.27c0-24.52-10.79-33.02-22.89-33.02
		C265.01,81.06,253.9,89.56,253.9,114.08z"/>
	<path class="st0" d="M166.92,317.58c0-24.52-10.95,6.27-23.05,6.27c-12.09,0-23.05-30.79-23.05-6.27
		c0,24.52,10.79,33.02,22.89,33.02C155.81,350.6,166.92,342.1,166.92,317.58z"/>
</g>
</svg>
