<?xml version="1.0" encoding="utf-8"?>
<!-- Generator: Adobe Illustrator 25.4.8, SVG Export Plug-In . SVG Version: 6.00 Build 0)  -->
<svg version="1.1" xmlns="http://www.w3.org/2000/svg" xmlns:xlink="http://www.w3.org/1999/xlink" x="0px" y="0px"
	 viewBox="0 0 262.18 133.48" style="enable-background:new 0 0 262.18 133.48;" xml:space="preserve">
<style type="text/css">
	.st0{fill:#ED2024;}
	.st1{fill:#FFFFFF;}
	.st2{font-family:'SukhumvitSet-SemiBold';}
	.st3{font-size:7px;}
	.st4{fill:#ED1C24;}
	.st5{fill:none;stroke:#E72430;stroke-linecap:round;stroke-miterlimit:10;}
	.st6{fill:none;stroke:#000000;stroke-linecap:round;stroke-miterlimit:10;}
</style>
<g id="Layer_4">
	<g id="first_name">
	</g>
	<g id="Layer_2">
	</g>
</g>
<g id="Layer_3">
	<circle class="st0" cx="69.51" cy="71.19" r="52.76"/>
	<g>
		<path class="st1" d="M59.79,57.01v-4.42h7.91v2.74c0,2.38,0.45,3.28,1.93,3.28c1.68,0,2.54-1.72,2.54-3.36v-8.81h7.91v13.24
			c0,1.15,0.41,1.52,0.98,1.52c0.25,0,10.32,0.11,10.52-0.01v2.96c-0.98,0.04-12.17,0-13.6,0c-3.07,0-5.16-0.57-5.69-2.87
			c-1.03,2.01-3.36,3.36-5.86,3.36C61.72,64.64,59.79,61.4,59.79,57.01z"/>
		<path class="st1" d="M83.68,46.64l7.5-0.57l0.21,3.36c1.27-2.46,3.91-2.99,6-2.99c4.71,0,6.59,2.79,6.59,7.17v10.54h-7.91v-8.98
			c0-2.34-0.98-2.73-2.45-2.73c-1.72,0-2.02,1.21-2.02,2.89v8.81h-7.91V46.64z"/>
		<path class="st1" d="M106.48,58.81v-7.38h-2.3v-5h2.3v-4.22l7.91-0.62v4.84h4.1v5h-4.1v5.62c0,1.93,0.41,2.62,1.93,2.62
			c0.94,0,10.96,0.11,11.93,0.11l0.88,4.36c-1.9,0-13.6,0-16.14,0C109.5,64.14,106.48,62.75,106.48,58.81z"/>
		<path class="st1" d="M119.46,55.17c0-5.66,4.57-8.73,9.53-8.73c4.63,0,8.55,2.25,8.55,6.76c0,1.07-0.12,2.38-0.29,2.95h-10.17
			c0.21,2.38,1.85,3.38,4.43,3.44c2.3,0.05,5.56,0.09,8.47,0.05v4.5c-3.43,0-7.13,0-10.86,0C123.22,64.14,119.46,60.66,119.46,55.17
			z M130.82,53.07c0,0,0.04-0.45,0.04-1.07c0-1.23-0.61-2.01-1.68-2.01c-0.98,0-1.8,0.66-2.05,3.07l0.97-0.97
			c0.55-0.55,1.46-0.52,1.96,0.08L130.82,53.07z"/>
		<path class="st1" d="M138.99,46.64l7.5-0.57l0.21,3.36c0.82-1.89,3.03-3.48,6.03-3.48v7.13c-2.99-1.19-5.82-0.04-5.82,3.03v8.04
			h-7.91V46.64z"/>
		<polygon class="st1" points="60.13,52.59 41.37,52.59 41.37,59.03 60,59.03 		"/>
		<polyline class="st1" points="104.29,46.43 97.2,46.43 97.2,51.54 126.73,51.34 129.59,46.43 		"/>
		<rect x="33.09" y="39.54" class="st1" width="8.28" height="24.6"/>
		<rect x="49.2" y="39.54" class="st1" width="8.28" height="24.6"/>
		<path class="st1" d="M27.96,95.27v-4.76c0.57,0.49,1.97,1.02,2.83,1.02c1.52,0,2.3-0.78,2.3-3.57V64.02h8.28v24.72
			c0,4.59-2.79,8.04-7.87,8.04C30.83,96.78,28.95,96.04,27.96,95.27z"/>
		<path class="st1" d="M42.67,81.93c0-5.62,4.76-9.51,10.5-9.51c5.7,0,10.46,3.9,10.46,9.51c0,5.7-4.76,4.14-10.46,4.14
			C47.42,86.08,42.67,87.63,42.67,81.93z M56.03,81.93c0-3.08-1.35-4.14-2.87-4.14c-1.52,0-2.91,1.07-2.91,4.14
			c0,3.07,1.39-1.23,2.91-1.23C54.68,80.7,56.03,85.01,56.03,81.93z"/>
		<path class="st1" d="M64.91,68.9l7.91-0.62l0.25,6.94c1.19-2.17,3.81-3.16,5.74-3.16c4.71,0,6.52,6.79,6.52,11.17v2.36h-7.91
			l-0.06-3.12c0-2.34-0.45-3.2-1.93-3.2c-1.72,0-2.54,1.68-2.54,3.36l0.06,2.95h-7.91L64.91,68.9z"/>
		<path class="st1" d="M86.47,68.28l7.5-0.57l0.21,3.36c1.27-2.46,3.85-3.48,5.95-3.48c4.71,0,6.64,3.28,6.64,7.67v10.54h-7.91
			v-8.98c0-2.34-0.45-3.2-1.93-3.2c-1.72,0-2.54,1.68-2.54,3.36v8.81h-7.91V68.28z"/>
		<path class="st1" d="M104.09,85.79v-4.18c2.27,0.03,8.31-0.11,11.14-0.11c1.23,0,1.76-0.37,1.76-0.94c0-0.78-0.7-0.86-2.13-1.11
			c-5.45-0.9-6.89-3.44-6.89-6.27c0-2.83,2.25-5.9,7.87-5.9c2.87,0,16.41-0.26,19.55-0.26l-0.02,4.55c-1.05,0-17.44,0.3-19.12,0.3
			c-0.98,0-1.43,0.29-1.43,0.74c0,0.57,0.53,0.82,1.48,0.98c5.9,0.98,7.54,3.48,7.54,5.9c0,3.94-2.56,6.29-8.18,6.29
			C112.34,85.79,106.76,85.79,104.09,85.79z"/>
		<path class="st1" d="M124.9,76.53c0-5.62,4.76-9.51,10.5-9.51c5.7,0,10.46,3.9,10.46,9.51c0,5.7-4.76,9.51-10.46,9.51
			C129.65,86.04,124.9,82.23,124.9,76.53z M138.26,77.53c0-3.08-1.35-4.14-2.87-4.14c-1.52,0-2.91,1.07-2.91,4.14
			c0,3.07,1.37-0.79,2.89-0.79C136.89,76.74,138.26,80.61,138.26,77.53z"/>
		<path class="st1" d="M147.29,67.65l7.5-0.57l0.21,3.36c1.27-2.46,3.85-3.48,5.95-3.48c4.71,0,6.64,3.28,6.64,7.67v10.54h-7.91
			v-8.98c0-2.34-0.45-3.2-1.93-3.2c-1.72,0-2.54,1.68-2.54,3.36v8.81h-7.91V67.65z"/>
	</g>
	<text transform="matrix(1 0 0 1 43.4774 94.1661)"><tspan x="0" y="0" class="st1 st2 st3">GRAPHIC DESIGNER </tspan><tspan x="64.34" y="0" class="st2 st3">/ </tspan><tspan x="68.94" y="0" class="st1 st2 st3">PHOTOGRAPHER </tspan><tspan x="124.02" y="0" class="st4 st2 st3">/ </tspan><tspan x="128.62" y="0" class="st1 st2 st3">ARTIST</tspan></text>
	<line class="st5" x1="44.31" y1="96.78" x2="193.82" y2="96.78"/>
	<line class="st6" x1="44.31" y1="96.78" x2="115.87" y2="96.78"/>
</g>
</svg>
